<?xml version="1.0" encoding="UTF-8" standalone="no"?>
<!-- Created with Inkscape (http://www.inkscape.org/) -->

<svg
   xmlns:dc="http://purl.org/dc/elements/1.1/"
   xmlns:cc="http://creativecommons.org/ns#"
   xmlns:rdf="http://www.w3.org/1999/02/22-rdf-syntax-ns#"
   xmlns:svg="http://www.w3.org/2000/svg"
   xmlns="http://www.w3.org/2000/svg"
   xmlns:sodipodi="http://sodipodi.sourceforge.net/DTD/sodipodi-0.dtd"
   xmlns:inkscape="http://www.inkscape.org/namespaces/inkscape"
   width="115.90602mm"
   height="54.736618mm"
   viewBox="0 0 115.90602 54.736618"
   version="1.1"
   id="svg8"
   sodipodi:docname="drawing.svg"
   inkscape:export-filename="C:\Users\Leo\Desktop\website\img\drawing.png"
   inkscape:export-xdpi="96"
   inkscape:export-ydpi="96"
   inkscape:version="0.92.4 (5da689c313, 2019-01-14)">
  <defs
     id="defs2" />
  <sodipodi:namedview
     id="base"
     pagecolor="#ffffff"
     bordercolor="#666666"
     borderopacity="1.0"
     inkscape:pageopacity="0.0"
     inkscape:pageshadow="2"
     inkscape:zoom="0.98994949"
     inkscape:cx="119.0877"
     inkscape:cy="17.787948"
     inkscape:document-units="mm"
     inkscape:current-layer="layer1"
     showgrid="false"
     fit-margin-top="0"
     fit-margin-left="0"
     fit-margin-right="0"
     fit-margin-bottom="0"
     inkscape:window-width="1920"
     inkscape:window-height="1001"
     inkscape:window-x="-9"
     inkscape:window-y="-9"
     inkscape:window-maximized="1" />
  <metadata
     id="metadata5">
    <rdf:RDF>
      <cc:Work
         rdf:about="">
        <dc:format>image/svg+xml</dc:format>
        <dc:type
           rdf:resource="http://purl.org/dc/dcmitype/StillImage" />
        <dc:title></dc:title>
      </cc:Work>
    </rdf:RDF>
  </metadata>
  <g
     inkscape:label="Layer 1"
     inkscape:groupmode="layer"
     id="layer1"
     transform="translate(-49.756127,-145.3972)">
    <text
       xml:space="preserve"
       style="font-style:normal;font-weight:normal;font-size:32.85471725px;line-height:1.25;font-family:sans-serif;letter-spacing:0px;word-spacing:0px;fill:#000000;fill-opacity:1;stroke:none;stroke-width:0.82136798"
       x="59.679306"
       y="150.20078"
       id="text819"
       transform="scale(0.87338341,1.1449725)"><tspan
         sodipodi:role="line"
         id="tspan817"
         x="59.679306"
         y="150.20078"
         style="font-style:normal;font-variant:normal;font-weight:normal;font-stretch:normal;line-height:2.25;font-family:Haettenschweiler;-inkscape-font-specification:Haettenschweiler;letter-spacing:0.04634901px;fill:#ffffff;fill-opacity:1;stroke-width:0.82136798"
         dx="2.9780173">EN MARCHE</tspan></text>
    <path
       style="fill:#f5023b;fill-opacity:1;stroke-width:0.18014686"
       d="m 70.545164,179.97371 c -0.596375,0.10679 -1.211935,0.36775 -1.760876,0.79478 -1.789677,1.3922 -2.678743,3.47948 -3.0364,7.12755 -0.228704,2.33275 -0.763873,3.76312 -1.736355,4.64176 -0.581576,0.52547 -1.726548,0.8102 -1.791844,0.44554 -0.02142,-0.1201 0.04578,-1.34712 0.149198,-2.72671 0.209294,-2.79219 -0.07602,-5.15883 -0.743965,-6.17248 -0.566142,-0.85918 -1.53851,-1.23081 -2.757152,-1.05317 -1.15317,0.1681 -1.704123,0.58228 -2.217142,1.66632 -0.451979,0.95508 -0.484059,1.9411 -0.125884,3.87359 0.489507,2.64109 1.450348,4.56055 2.869144,5.73241 l 0.56849,0.4697 -0.233583,0.7152 c -0.348234,1.06665 -1.162098,2.60663 -1.29744,2.45476 -0.186472,-0.20924 -1.089326,-2.53063 -2.530807,-6.5063 -1.909516,-5.26656 -2.583124,-6.31161 -4.078143,-6.32714 -0.568534,-0.006 -0.64848,0.0496 -0.747984,0.51941 l -0.111204,0.52621 -0.130087,-0.51871 c -0.07145,-0.28535 -0.152944,-0.41442 -0.181194,-0.28647 -0.02824,0.12795 -0.12706,0.20225 -0.21928,0.16478 -0.09221,-0.0374 -0.30685,0.17499 -0.4771,0.47185 -0.287418,0.5012 -0.278552,0.66359 0.120958,2.27567 0.508046,2.05011 2.030039,6.84623 2.553314,8.04579 1.444369,3.31105 4.512849,4.75148 6.823545,3.20324 0.535177,-0.3586 0.874076,-0.82816 1.369022,-1.8973 0.361756,-0.78143 0.710383,-1.71314 0.775123,-2.07041 0.116414,-0.64199 0.129836,-0.6511 1.173695,-0.80327 1.32014,-0.19244 2.130997,-0.66432 2.912221,-1.69442 l 0.610103,-0.80413 0.516524,1.05156 c 0.67888,1.38202 1.441619,2.24082 2.635374,2.96659 0.997358,0.60639 2.413801,0.92133 3.450503,0.76692 1.877601,-0.27947 3.889427,-3.45331 4.985383,-7.86463 0.375006,-1.5094 0.558111,-1.9077 1.140124,-2.48078 l 0.693391,-0.68302 -0.335424,1.07869 c -0.755269,2.42823 -0.869057,4.95691 -0.328287,7.29855 0.300615,1.30168 0.485683,1.74911 0.961648,2.32553 1.01856,1.23356 2.638516,1.64057 4.081948,1.02607 1.516234,-0.6455 2.91568,-3.9065 3.836377,-8.93978 0.245483,-1.34201 0.502289,-2.44825 0.570667,-2.45821 0.154103,-0.0225 1.957334,1.50436 1.990662,1.68552 0.01333,0.0725 -0.19509,0.69689 -0.463017,1.38764 -0.729782,1.88149 -0.825481,2.99372 -0.41285,4.78854 0.521932,2.2703 1.410055,3.18364 3.251554,3.34379 1.404709,0.12208 3.223979,-0.88297 3.805087,-2.10215 0.879568,-1.84527 0.349647,-4.75827 -1.267853,-6.97009 -0.389747,-0.53293 -0.695313,-0.98114 -0.679236,-0.99634 0.01607,-0.0152 0.544216,-0.36599 1.173539,-0.77898 1.891385,-1.24128 2.865826,-2.91251 2.035135,-3.48992 -0.471427,-0.32772 -0.959459,-0.0807 -1.474531,0.74581 -0.510061,0.81849 -2.213657,2.0864 -2.94709,2.19332 -0.416237,0.0607 -2.275218,-1.3776 -3.789097,-2.93167 -0.921681,-0.94612 -1.082303,-1.20752 -1.227506,-1.99687 -0.219756,-1.19461 0.09569,-1.8098 0.848468,-1.65411 0.633938,0.13115 1.002158,0.56679 1.486055,1.7591 0.390866,0.96307 0.891707,1.22636 1.135454,0.59693 0.108276,-0.27963 0.130713,-0.27626 0.19764,0.0316 l 0.07547,0.34745 0.215769,-0.3899 c 0.29471,-0.53216 -0.12564,-2.07458 -0.718322,-2.63602 -1.23673,-1.1715 -3.478148,-1.15067 -4.748463,0.0443 -1.315674,1.23758 -1.486776,3.48573 -0.374853,4.92477 l 0.493778,0.63896 -0.427715,2.1926 c -0.611543,3.13667 -1.717031,6.60667 -2.461008,7.72524 l -0.631818,0.94991 -0.315784,-0.98546 c -0.564931,-1.76441 -0.607037,-4.67475 -0.127646,-8.80467 0.241479,-2.08031 0.175453,-3.37924 -0.192131,-3.77316 -0.311829,-0.33416 -1.271624,-0.42503 -2.047174,-0.19366 -0.49042,0.14629 -0.967478,0.46911 -1.36346,0.92247 -0.730101,0.83585 -0.843875,0.87615 -0.720089,0.25396 0.141235,-0.70994 -0.209597,-2.32647 -0.618522,-2.8498 -0.647833,-0.82906 -2.740813,-0.79438 -3.442692,0.057 -0.706094,0.85651 -0.802687,3.45979 -0.187725,5.05756 0.477222,1.23984 0.917033,1.68221 2.034191,2.0453 0.130936,0.0425 -0.939922,3.53534 -1.421881,4.63764 -0.573083,1.31071 -1.725542,3.03667 -2.202169,3.29801 -1.034931,0.5674 -1.702931,-0.66665 -2.393744,-4.422 l -0.521891,-2.83706 1.312807,-1.92145 c 1.427787,-2.08953 2.097887,-3.79203 1.905022,-4.84046 -0.208379,-1.13278 -1.42697,-1.64417 -2.738981,-1.40915 z m 0.682085,1.38119 c 0.326605,-0.0143 0.420855,0.72303 -0.0076,1.85592 -0.432223,1.14295 -1.671899,3.03797 -1.744005,2.66545 -0.08373,-0.43375 0.514735,-2.64667 0.975464,-3.60705 0.300538,-0.62646 0.580133,-0.90575 0.776103,-0.91432 z m 5.193983,-0.38124 c 0.05144,-0.006 0.114442,0.094 0.225285,0.27239 0.170568,0.27456 0.27197,0.91376 0.305927,1.92687 0.06314,1.8839 0.0016,2.31242 -0.287549,1.99976 -0.358483,-0.38759 -0.66637,-2.78361 -0.461804,-3.59336 0.104945,-0.41547 0.15201,-0.59798 0.218141,-0.60566 z m -17.100172,3.22241 c 0.14349,-0.0152 0.31948,0.13976 0.531989,0.46225 0.501286,0.76071 0.848252,2.69223 0.797148,4.43889 -0.07424,2.53758 -0.256742,2.38345 -1.230935,-1.0381 -0.511513,-1.79621 -0.593702,-2.28513 -0.496815,-2.96203 0.08343,-0.58283 0.214062,-0.88191 0.398613,-0.90101 z m 9.205881,0.22634 c 0.0066,-1.9e-4 0.01342,0.003 0.0196,0.006 0.05576,0.0388 -0.04041,0.89219 -0.2137,1.89619 -0.268436,1.55602 -0.324448,1.70394 -0.377752,1.00185 -0.05952,-0.7844 0.364814,-2.89821 0.571841,-2.90412 z m -1.362516,0.62859 c 0.08085,-0.0519 0.09151,0.30701 -0.02865,1.1157 -0.123052,0.82815 -0.284432,1.51709 -0.358493,1.53118 -0.210333,0.0394 -0.211642,-0.23316 -0.0061,-1.2971 0.16133,-0.83513 0.312402,-1.29788 0.393252,-1.34978 z m -6.014584,1.78736 c 0.01211,-0.0232 0.04554,0.0412 0.103222,0.18674 0.08202,0.20705 0.140636,1.04545 0.13011,1.86309 -0.01864,1.45044 -0.201403,3.3083 -0.290833,2.95681 -0.0246,-0.0968 -5.47e-4,-1.06839 0.05352,-2.1589 0.05411,-1.09053 0.06669,-2.22014 0.02817,-2.51028 -0.02707,-0.20403 -0.0363,-0.3143 -0.02419,-0.33746 z m 0.647953,0.30869 c 0.01096,0.004 0.02626,0.0254 0.04538,0.0658 0.07646,0.16137 0.127067,0.43645 0.112417,0.6111 -0.01464,0.17466 -0.07722,0.0425 -0.139037,-0.29348 -0.04636,-0.25204 -0.0515,-0.39553 -0.01876,-0.38338 z m 20.436311,-2.80835 c 0.03491,0.018 0.0071,0.23379 -0.08276,0.67575 -0.270406,1.3301 -0.661813,2.6834 -0.622376,2.15201 0.06385,-0.86058 0.38795,-2.31999 0.598792,-2.69732 0.03855,-0.0691 0.0676,-0.11156 0.08775,-0.12603 0.0076,-0.006 0.01364,-0.007 0.01864,-0.005 z m -20.30144,4.19481 c 0.0061,-0.006 0.01129,0.003 0.01583,0.0233 0.04844,0.22298 0.03635,1.07168 -0.02699,1.88601 -0.103639,1.33257 -0.206591,1.92823 -0.25715,1.4866 -0.0547,-0.47715 0.178795,-3.31935 0.268308,-3.39584 z m 19.304445,0.15953 c 0.0065,-0.003 0.01254,-0.001 0.01845,0.002 0.04857,0.0338 0.04065,0.30144 -0.01771,0.59473 -0.05836,0.29327 -0.170228,1.26824 -0.248484,2.16691 -0.110295,1.26669 -0.170462,1.48929 -0.269483,0.98989 -0.116546,-0.58979 0.318448,-3.68051 0.517198,-3.75396 z m -1.061686,0.32419 c 0.005,-0.002 0.0097,-1.9e-4 0.01438,0.003 0.03739,0.026 0.01799,0.48081 -0.04292,1.0105 -0.06091,0.52968 -0.132551,1.66629 -0.159309,2.52598 -0.05198,1.66955 -0.231177,1.40692 -0.258167,-0.37828 -0.01482,-0.97978 0.292455,-3.12166 0.445975,-3.16121 z m 11.904851,0.7848 c 0.304871,0.0156 1.248983,2.23235 1.471823,3.49083 0.133071,0.75062 0.139734,1.44456 0.01784,1.8684 -0.106644,0.37083 -0.307943,0.69069 -0.44743,0.71102 -0.3649,0.0532 -1.094925,-0.82653 -1.389736,-1.67522 -0.463197,-1.33343 -0.261513,-4.10108 0.319817,-4.38972 0.0084,-0.004 0.01783,-0.006 0.02758,-0.005 z"
       id="path1024"
       inkscape:connector-curvature="0" />
    <path
       style="fill:#f5023b;fill-opacity:1;stroke-width:0.22413033"
       d="m 153.46769,160.89589 c -0.22503,0.0336 -0.45986,0.10352 -0.75338,0.21113 -1.07575,0.39443 -1.44076,0.87734 -2.06721,2.73513 -0.94861,2.81336 -1.14104,5.87945 -0.64745,10.31739 0.26579,2.38988 0.2434,2.88491 -0.20492,4.55689 -1.02152,3.80942 -3.10324,7.85022 -4.39567,8.53258 -1.34066,0.70783 -2.17177,-0.76796 -3.0156,-5.35517 l -0.63469,-3.45024 1.68923,-2.35011 c 1.83669,-2.55554 2.70572,-4.63361 2.4712,-5.90852 -0.36857,-2.00358 -3.46788,-2.38924 -5.71528,-0.71134 -2.18645,1.6324 -3.53159,4.46196 -3.83868,8.07549 -0.1787,2.10283 -0.96977,3.92554 -2.09324,4.82235 l -0.6582,0.52507 -0.21647,-1.928 c -0.46186,-4.107 -2.24314,-6.73932 -5.41126,-7.99613 -2.15927,-0.85663 -5.02907,0.10082 -5.93911,1.98154 -0.64092,1.32457 -0.63553,3.01676 0.0133,4.26071 0.51868,0.99447 0.52055,1.07313 0.10935,4.34333 -0.94047,7.47945 -1.43258,9.83693 -2.1219,10.16407 -0.40245,0.191 -0.89543,-1.93132 -0.9411,-4.05051 -0.0231,-1.07555 0.13236,-4.8141 0.34598,-8.30794 0.48682,-7.96256 0.46798,-9.21131 -0.16231,-10.72936 -0.51156,-1.23206 -1.02433,-1.73322 -2.11299,-2.06404 -1.62121,-0.49266 -3.19782,0.53132 -4.29551,2.79047 -0.98146,2.01996 -2.28701,6.84464 -2.97356,10.98938 -0.35117,2.12003 -0.66495,3.83321 -0.69739,3.80705 -0.0325,-0.0261 -0.18042,-1.25594 -0.32893,-2.73279 -0.34837,-3.46438 -2.12735,-12.15291 -2.70836,-13.22793 -0.59377,-1.09867 -0.93254,-1.28624 -2.19252,-1.21252 -1.68745,0.0987 -1.92702,0.59154 -2.02498,4.16575 -0.12881,4.70028 0.91021,11.05505 2.34191,14.32136 1.33017,3.03468 2.82993,4.33639 4.66051,4.04557 1.45686,-0.2314 1.75214,-0.81771 2.21503,-4.39395 0.72541,-5.60457 1.24187,-8.65098 1.81366,-10.70153 0.65907,-2.36361 1.95911,-5.24523 2.15194,-4.7696 0.072,0.17748 -0.0933,2.89404 -0.36719,6.03647 -0.274,3.14241 -0.47782,6.69113 -0.45266,7.88628 0.0577,2.75058 0.63825,5.95837 1.30206,7.19627 1.409,2.62745 4.39822,3.61608 5.93727,1.96336 0.65655,-0.70505 1.42897,-2.77996 1.89626,-5.09418 l 0.28268,-1.40051 0.81751,0.74545 c 1.85859,1.69558 4.31955,2.03598 6.15791,0.85115 1.07725,-0.69427 2.04786,-2.18014 2.43179,-3.72313 0.20193,-0.81151 0.39389,-1.05585 1.06372,-1.35343 0.44953,-0.19972 1.2158,-0.75132 1.70279,-1.22608 l 0.8853,-0.8634 0.30885,0.9703 c 1.13905,3.57615 4.78609,6.08856 8.1299,5.60113 1.85683,-0.27068 3.97621,-2.80374 5.42744,-6.48676 l 0.74018,-1.87842 0.28824,0.80302 c 0.77535,2.16193 2.34947,5.23711 3.30996,6.46551 1.16331,1.48774 2.54467,2.48703 4.11333,2.97551 3.19481,0.99485 5.10988,-1.63645 6.01659,-8.26655 0.44935,-3.28568 0.69417,-8.00764 0.43604,-8.4113 -0.11011,-0.17215 -0.41681,-0.38194 -0.68203,-0.46636 -0.9354,-0.29773 -1.15432,0.3108 -1.35662,3.77628 -0.10571,1.81081 -0.32183,4.14499 -0.48052,5.18708 -0.53263,3.49927 -1.57901,6.33317 -2.38172,6.45018 -0.52629,0.0767 -2.07501,-2.20464 -2.83978,-4.18328 -0.36883,-0.95427 -0.97219,-3.02867 -1.34074,-4.60997 l -0.66987,-2.8751 0.82188,-1.84392 c 1.93376,-4.33876 2.51084,-7.10505 2.029,-9.72442 -0.53047,-2.88366 -1.86925,-4.63755 -3.92163,-5.1371 -0.54456,-0.13252 -0.89219,-0.17594 -1.2672,-0.11966 z m 1.34913,1.60025 c 0.0897,-0.0244 0.20325,0.0341 0.37607,0.13717 0.93369,0.5568 1.57878,1.89422 1.78201,3.69466 0.21325,1.88925 0.0534,3.02043 -0.84513,5.9814 -0.9347,3.08016 -1.06996,3.03727 -1.52533,-0.48264 -0.50158,-3.87706 -0.57444,-6.92783 -0.1991,-8.34384 0.17911,-0.67569 0.26196,-0.94605 0.41148,-0.98675 z m -41.38736,10.54228 c 0.0226,-0.009 0.0448,-0.007 0.0655,0.007 0.0829,0.055 0.0435,0.23662 -0.0875,0.40357 -0.18932,0.24126 -0.22004,0.22055 -0.1506,-0.10027 0.0361,-0.16646 0.10519,-0.28478 0.17261,-0.31038 z m -0.69809,0.23287 c 0.0598,-0.009 -0.20694,1.03553 -0.59321,2.3206 -0.38628,1.28508 -0.75783,2.57158 -0.82513,2.85888 -0.0674,0.28729 -0.21098,0.4637 -0.31942,0.39182 -0.29523,-0.19576 -0.3048,-0.52428 -0.012,-0.41205 0.14964,0.0574 0.2027,-0.18464 0.12864,-0.58707 -0.0693,-0.3766 -0.0515,-0.63557 0.04,-0.57528 0.0908,0.0601 0.45957,-0.81063 0.81936,-1.93553 0.35979,-1.12489 0.70262,-2.05259 0.76246,-2.06132 z m 3.92207,-0.49635 c 0.0217,-6.1e-4 0.0528,0.0289 0.092,0.0883 0.0947,0.14352 0.12002,0.32815 0.0564,0.40982 -0.0636,0.0817 -0.1412,-0.0357 -0.17234,-0.26095 -0.0215,-0.15557 -0.0119,-0.23698 0.0243,-0.23717 z m 0.0382,0.90375 c 0.0777,-0.0537 0.01,1.82172 -0.21082,4.91447 -0.42403,5.94643 -0.46137,6.35105 -0.55446,6.00118 -0.0969,-0.36368 0.25007,-6.4155 0.52419,-9.14064 0.11957,-1.18941 0.2004,-1.74685 0.24108,-1.77502 z m 26.60237,-3.51095 c 0.41542,-0.02 0.52772,0.87683 -0.0285,2.25957 -0.56121,1.39502 -2.15712,3.71211 -2.24492,3.25912 -0.10238,-0.52737 0.68153,-3.22644 1.27714,-4.39943 0.38849,-0.76514 0.74704,-1.10723 0.9963,-1.11926 z m -30.72066,5.54124 c 0.0741,-0.008 0.0484,0.29725 -0.10175,0.70831 -0.0986,0.26956 -0.39982,1.50879 -0.66933,2.75357 -0.2695,1.24478 -0.51619,2.13706 -0.54902,1.98296 -0.0664,-0.3171 0.90244,-4.68091 1.15938,-5.22048 0.0726,-0.15243 0.12699,-0.22077 0.1607,-0.22436 z m 12.82821,-1.46984 c 1.26331,-0.18251 2.9838,0.65002 4.1987,2.34919 0.7957,1.11285 1.6738,4.34445 1.59502,5.86919 l 8e-5,4.2e-4 c -0.025,0.48251 -0.19131,0.92465 -0.37015,0.98286 -0.48621,0.15829 -2.26541,-0.41338 -3.11156,-0.99981 l -0.74425,-0.51559 0.10429,-2.10671 c 0.0574,-1.15868 0.0604,-2.34728 0.006,-2.64119 -0.0935,-0.50825 -0.17892,-0.55885 -0.86297,-0.51021 -0.1606,0.0115 -0.37481,-0.0547 -0.47636,-0.14725 -0.10148,-0.0926 -0.36292,-0.0663 -0.58083,0.0588 -1.30624,0.74944 -1.68034,0.50143 -1.3303,-0.88228 0.22076,-0.87271 0.814,-1.34776 1.57197,-1.45732 z m 31.88281,-3.71363 c 0.024,-0.004 0.042,0.0145 0.05,0.0583 0.0215,0.11676 -0.0349,0.37019 -0.1256,0.56324 -0.0907,0.19303 -0.18226,0.25543 -0.20374,0.13868 -0.0214,-0.11674 0.0349,-0.37018 0.1256,-0.56322 0.0568,-0.12066 0.11365,-0.19021 0.15374,-0.19696 z m -39.23666,5.96953 c 0.0217,-6.1e-4 0.0528,0.0288 0.092,0.0883 0.0947,0.14352 0.12001,0.32814 0.0564,0.40982 -0.0636,0.0817 -0.1412,-0.0357 -0.17234,-0.26096 -0.0215,-0.15556 -0.012,-0.23696 0.0243,-0.23717 z m 21.78207,-2.57073 c 0.009,-2.3e-4 0.0165,0.002 0.0244,0.008 0.0705,0.0467 -0.0608,1.08639 -0.291,2.31017 -0.35734,1.89667 -0.42958,2.07696 -0.49015,1.22258 -0.0677,-0.95453 0.49345,-3.53097 0.75673,-3.53983 z m -21.72849,3.5429 c 0.007,-2.3e-4 0.0133,0.01 0.0183,0.0318 0.0409,0.17385 0.001,1.01335 -0.0876,1.86546 -0.0889,0.8521 -0.19445,1.40697 -0.23537,1.23311 -0.0409,-0.17385 -0.002,-1.01328 0.0872,-1.8654 0.0778,-0.74559 0.16853,-1.2636 0.2175,-1.26498 z m 20.0712,-2.876 c 0.0814,-0.0335 0.0465,0.355 -0.10191,1.08935 -0.16225,0.80286 -0.29993,1.65666 -0.30593,1.89729 -0.007,0.28933 -0.0839,0.36146 -0.2271,0.21276 -0.24171,-0.25104 0.14375,-2.39153 0.55984,-3.10756 0.0312,-0.0536 0.0562,-0.0841 0.075,-0.0919 z m 18.69677,-2.52071 c 0.0253,8.1e-4 0.0443,0.0449 0.0598,0.12922 0.0209,0.11388 -0.089,0.41584 -0.24444,0.67121 -0.26649,0.43779 -0.27268,0.4318 -0.10596,-0.10632 0.1488,-0.4804 0.23504,-0.6947 0.29061,-0.69413 z m -46.18454,6.96745 c 0.0342,0.002 0.0888,0.0271 0.16564,0.0763 0.2074,0.13303 0.18668,0.72791 -0.0729,2.08128 -0.19987,1.04226 -0.3474,1.59844 -0.32821,1.236 0.0193,-0.36244 0.0109,-0.82711 -0.019,-1.03257 -0.0298,-0.20546 0.0207,-0.3843 0.10952,-0.39739 0.20153,-0.0293 0.30717,-1.34296 0.14181,-1.76438 -0.0534,-0.13624 -0.054,-0.20153 0.003,-0.19927 z m 46.65252,-6.60186 c 0.0634,-0.009 -0.0262,0.39614 -0.19897,0.90086 -0.17275,0.5047 -0.36606,0.9252 -0.42943,0.93445 -0.0634,0.009 0.0262,-0.39616 0.19896,-0.90086 0.17277,-0.50471 0.36606,-0.92522 0.42944,-0.93445 z m -0.9939,1.01673 c 0.0634,-0.009 0.007,0.29321 -0.12509,0.67212 -0.13222,0.3789 -0.29212,0.69647 -0.35549,0.70571 -0.0634,0.009 -0.007,-0.29321 0.12508,-0.67211 0.13221,-0.37892 0.29213,-0.69648 0.35551,-0.70572 z m 0.19959,1.06072 c 0.0634,-0.009 0.0395,0.1904 -0.0533,0.44372 -0.0927,0.25327 -0.22043,0.46806 -0.2838,0.47729 -0.0633,0.009 -0.0395,-0.19041 0.0533,-0.44371 0.0927,-0.25328 0.22044,-0.46806 0.28382,-0.4773 z m -38.76157,6.61248 c 0.0249,-0.0201 0.0488,0.0571 0.0797,0.22507 0.0429,0.2335 0.0389,0.67546 -0.009,0.98213 -0.0688,0.44152 -0.10321,0.4692 -0.16502,0.13304 -0.043,-0.23351 -0.0389,-0.67547 0.009,-0.98212 0.0344,-0.22077 0.0603,-0.33803 0.0853,-0.35812 z m 38.22625,-5.36161 c 0.0625,-0.008 0.085,0.075 0.0522,0.22528 -0.0856,0.39007 -0.23828,0.48107 -0.29446,0.17574 -0.0202,-0.10986 0.055,-0.2728 0.16722,-0.36239 0.0293,-0.0234 0.0544,-0.0361 0.0752,-0.0387 z m -45.05033,7.21334 c 0.0217,-6.1e-4 0.0528,0.0288 0.092,0.0883 0.0948,0.14354 0.12003,0.32813 0.0564,0.40982 -0.0637,0.0817 -0.14119,-0.0356 -0.17234,-0.26095 -0.0215,-0.15557 -0.012,-0.23697 0.0243,-0.23717 z m 6.64844,0.12067 c 0.0217,-6.1e-4 0.0528,0.0287 0.092,0.0883 0.0947,0.14353 0.12002,0.32814 0.0564,0.40983 -0.0637,0.0817 -0.14119,-0.0357 -0.17234,-0.26097 -0.0215,-0.15555 -0.0119,-0.23698 0.0243,-0.23716 z m -7.42702,1.59436 c 0.0158,-0.002 0.0287,0.0177 0.0367,0.0615 0.0322,0.17512 -0.0196,0.67311 -0.11534,1.10663 -0.0957,0.43356 -0.20029,0.64496 -0.2325,0.46982 -0.0322,-0.17512 0.0196,-0.67311 0.11534,-1.10663 0.0717,-0.32512 0.14827,-0.52539 0.19577,-0.5313 z m 7.38116,-0.69028 c 0.0147,0.003 0.0335,0.0202 0.0563,0.0544 0.0908,0.13661 0.13471,0.37542 0.0976,0.53068 -0.037,0.15526 -0.11124,0.0434 -0.16493,-0.24841 -0.0403,-0.21893 -0.0331,-0.34488 0.011,-0.33665 z m -6.90351,1.19875 c 0.0217,-6.1e-4 0.0528,0.0289 0.092,0.0884 0.0947,0.14353 0.12001,0.32814 0.0564,0.40981 -0.0637,0.0817 -0.14121,-0.0357 -0.17235,-0.26094 -0.0215,-0.15558 -0.012,-0.23697 0.0243,-0.23718 z m 6.83986,-0.1252 c 0.0217,-6.1e-4 0.0528,0.0288 0.092,0.0883 0.0947,0.14354 0.12002,0.32815 0.0564,0.40984 -0.0637,0.0817 -0.1412,-0.0357 -0.17234,-0.26097 -0.0215,-0.15557 -0.012,-0.23697 0.0243,-0.23715 z m 9.92825,-0.27147 c 0.11612,-0.0318 0.46658,0.0739 1.24459,0.31581 0.78169,0.24311 1.57278,0.41994 1.75797,0.39294 0.25652,-0.0374 0.23358,0.2254 -0.0956,1.10374 -0.23757,0.63404 -0.55686,1.171 -0.70954,1.19325 -0.25439,0.0371 -1.56023,-1.60371 -2.13407,-2.68123 -0.10221,-0.19189 -0.15371,-0.29976 -0.0633,-0.32453 z m -16.9556,2.63643 c 0.0554,0.0367 0.0154,0.57502 -0.0887,1.19598 -0.10426,0.62094 -0.26018,1.18541 -0.34653,1.25442 -0.0864,0.0691 -0.0464,-0.46885 0.0888,-1.19558 0.1352,-0.7267 0.29105,-1.29156 0.34646,-1.25482 z"
       id="path998"
       inkscape:connector-curvature="0" />
    <path
       style="fill:#f5023b;fill-opacity:1;stroke-width:0.22413033"
       d="m 135.05682,167.23574 c -0.71054,-0.47102 -0.9453,-1.17169 -0.68896,-2.05611 0.18682,-0.64458 1.00763,-1.12398 0.87957,-0.51371 -0.0666,0.31741 -0.0319,0.32098 0.25241,0.0263 0.28166,-0.29227 0.46056,-0.29192 1.2284,0.002 1.13274,0.4342 1.47949,1.10418 1.0141,1.95938 -0.49094,0.9021 -1.78105,1.18173 -2.68556,0.58211 z"
       id="path936"
       inkscape:connector-curvature="0" />
    <path
       style="fill:#f5023b;fill-opacity:1;stroke-width:0.22413033"
       d="m 142.48726,164.44 c -0.71052,-0.47102 -0.9453,-1.17168 -0.68896,-2.0561 0.18683,-0.64458 1.00763,-1.12397 0.87957,-0.51371 -0.0666,0.31742 -0.0319,0.32099 0.25241,0.0263 0.28166,-0.29227 0.46058,-0.29193 1.2284,0.002 1.13274,0.43418 1.4795,1.10417 1.0141,1.95936 -0.49093,0.90211 -1.78105,1.18175 -2.68556,0.58211 z"
       id="path840"
       inkscape:connector-curvature="0" />
  </g>
</svg>
